solid FlushCutterHolster
facet normal -0.13052619222004516 -0.0 -0.9914448613738113
  outer loop
    vertex 527.6430556040822 179.84855569737445 11.846594565722514
    vertex 526.9960079913259 175.84855569737465 11.93177999999984
    vertex 526.9960079913259 179.84855569737445 11.93177999999984
  endloop
endfacet
facet normal -0.13052619222004516 -0.0 -0.9914448613738113
  outer loop
    vertex 526.9960079913259 175.84855569737465 11.93177999999984
    vertex 527.6430556040822 179.84855569737445 11.846594565722514
    vertex 527.6430556040822 175.84855569737465 11.846594565722514
  endloop
endfacet
facet normal 0.13052619222004516 0.0 -0.9914448613738113
  outer loop
    vertex 526.9960079913259 179.84855569737445 11.93177999999984
    vertex 526.3489603785695 175.84855569737465 11.846594565722514
    vertex 526.3489603785695 179.84855569737445 11.846594565722514
  endloop
endfacet
facet normal 0.13052619222004516 0.0 -0.9914448613738113
  outer loop
    vertex 526.3489603785695 175.84855569737465 11.846594565722514
    vertex 526.9960079913259 179.84855569737445 11.93177999999984
    vertex 526.9960079913259 175.84855569737465 11.93177999999984
  endloop
endfacet
facet normal -0.793353340291281 -0.0 -0.6087614290086608
  outer loop
    vertex 528.7637749442922 179.84855569737445 11.199546952966207
    vertex 529.1610715007869 175.84855569737465 10.681779999999836
    vertex 528.7637749442922 175.84855569737465 11.199546952966207
  endloop
endfacet
facet normal -0.793353340291281 -0.0 -0.6087614290086608
  outer loop
    vertex 529.1610715007869 175.84855569737465 10.681779999999836
    vertex 528.7637749442922 179.84855569737445 11.199546952966207
    vertex 529.1610715007869 179.84855569737445 10.681779999999836
  endloop
endfacet
facet normal -0.38268343236511654 -0.0 -0.9238795325112757
  outer loop
    vertex 528.2460079913259 179.84855569737445 11.596843509460934
    vertex 527.6430556040822 175.84855569737465 11.846594565722514
    vertex 527.6430556040822 179.84855569737445 11.846594565722514
  endloop
endfacet
facet normal -0.38268343236511654 -0.0 -0.9238795325112757
  outer loop
    vertex 527.6430556040822 175.84855569737465 11.846594565722514
    vertex 528.2460079913259 179.84855569737445 11.596843509460934
    vertex 528.2460079913259 175.84855569737465 11.596843509460934
  endloop
endfacet
facet normal -0.6087614290086903 -0.0 -0.7933533402912584
  outer loop
    vertex 528.7637749442922 179.84855569737445 11.199546952966207
    vertex 528.2460079913259 175.84855569737465 11.596843509460934
    vertex 528.2460079913259 179.84855569737445 11.596843509460934
  endloop
endfacet
facet normal -0.6087614290086903 -0.0 -0.7933533402912584
  outer loop
    vertex 528.2460079913259 175.84855569737465 11.596843509460934
    vertex 528.7637749442922 179.84855569737445 11.199546952966207
    vertex 528.7637749442922 175.84855569737465 11.199546952966207
  endloop
endfacet
facet normal 0.38268343236511465 0.0 -0.9238795325112764
  outer loop
    vertex 526.3489603785695 179.84855569737445 11.846594565722514
    vertex 525.7460079913259 175.84855569737465 11.596843509460934
    vertex 525.7460079913259 179.84855569737445 11.596843509460934
  endloop
endfacet
facet normal 0.38268343236511465 0.0 -0.9238795325112764
  outer loop
    vertex 525.7460079913259 175.84855569737465 11.596843509460934
    vertex 526.3489603785695 179.84855569737445 11.846594565722514
    vertex 526.3489603785695 175.84855569737465 11.846594565722514
  endloop
endfacet
facet normal -0.38268343236511465 0.0 0.9238795325112764
  outer loop
    vertex 528.2460079913259 175.84855569737465 7.2667164905387445
    vertex 527.6430556040822 179.84855569737445 7.016965434277171
    vertex 527.6430556040822 175.84855569737465 7.016965434277171
  endloop
endfacet
facet normal -0.38268343236511465 0.0 0.9238795325112764
  outer loop
    vertex 527.6430556040822 179.84855569737445 7.016965434277171
    vertex 528.2460079913259 175.84855569737465 7.2667164905387445
    vertex 528.2460079913259 179.84855569737445 7.2667164905387445
  endloop
endfacet
facet normal -0.923879532511284 -0.0 -0.3826834323650969
  outer loop
    vertex 529.1610715007869 179.84855569737445 10.681779999999836
    vertex 529.4108225570485 175.84855569737465 10.078827612756141
    vertex 529.1610715007869 175.84855569737465 10.681779999999836
  endloop
endfacet
facet normal -0.923879532511284 -0.0 -0.3826834323650969
  outer loop
    vertex 529.4108225570485 175.84855569737465 10.078827612756141
    vertex 529.1610715007869 179.84855569737445 10.681779999999836
    vertex 529.4108225570485 179.84855569737445 10.078827612756141
  endloop
endfacet
facet normal -0.793353340291281 0.0 0.6087614290086608
  outer loop
    vertex 529.1610715007869 179.84855569737445 8.181779999999842
    vertex 528.7637749442922 175.84855569737465 7.664013047033472
    vertex 529.1610715007869 175.84855569737465 8.181779999999842
  endloop
endfacet
facet normal -0.793353340291281 0.0 0.6087614290086608
  outer loop
    vertex 528.7637749442922 175.84855569737465 7.664013047033472
    vertex 529.1610715007869 179.84855569737445 8.181779999999842
    vertex 528.7637749442922 179.84855569737445 7.664013047033472
  endloop
endfacet
facet normal 0.9914448613738099 0.0 0.1305261922200564
  outer loop
    vertex 524.5811934256033 179.84855569737445 8.784732387243539
    vertex 524.4960079913259 175.84855569737465 9.43177999999984
    vertex 524.5811934256033 175.84855569737465 8.784732387243539
  endloop
endfacet
facet normal 0.9914448613738099 0.0 0.1305261922200564
  outer loop
    vertex 524.4960079913259 175.84855569737465 9.43177999999984
    vertex 524.5811934256033 179.84855569737445 8.784732387243539
    vertex 524.4960079913259 179.84855569737445 9.43177999999984
  endloop
endfacet
facet normal -0.6087614290086903 0.0 0.7933533402912584
  outer loop
    vertex 528.7637749442922 175.84855569737465 7.664013047033472
    vertex 528.2460079913259 179.84855569737445 7.2667164905387445
    vertex 528.2460079913259 175.84855569737465 7.2667164905387445
  endloop
endfacet
facet normal -0.6087614290086903 0.0 0.7933533402912584
  outer loop
    vertex 528.2460079913259 179.84855569737445 7.2667164905387445
    vertex 528.7637749442922 175.84855569737465 7.664013047033472
    vertex 528.7637749442922 179.84855569737445 7.664013047033472
  endloop
endfacet
facet normal 0.99144486137381 0.0 -0.13052619222005557
  outer loop
    vertex 524.4960079913259 179.84855569737445 9.43177999999984
    vertex 524.5811934256033 175.84855569737465 10.078827612756147
    vertex 524.4960079913259 175.84855569737465 9.43177999999984
  endloop
endfacet
facet normal 0.99144486137381 0.0 -0.13052619222005557
  outer loop
    vertex 524.5811934256033 175.84855569737465 10.078827612756147
    vertex 524.4960079913259 179.84855569737445 9.43177999999984
    vertex 524.5811934256033 179.84855569737445 10.078827612756147
  endloop
endfacet
facet normal 0.13052619222004516 0.0 0.9914448613738113
  outer loop
    vertex 526.9960079913259 175.84855569737465 6.931779999999841
    vertex 526.3489603785695 179.84855569737445 7.016965434277171
    vertex 526.3489603785695 175.84855569737465 7.016965434277171
  endloop
endfacet
facet normal 0.13052619222004516 0.0 0.9914448613738113
  outer loop
    vertex 526.3489603785695 179.84855569737445 7.016965434277171
    vertex 526.9960079913259 175.84855569737465 6.931779999999841
    vertex 526.9960079913259 179.84855569737445 6.931779999999841
  endloop
endfacet
facet normal 0.6087614290086903 0.0 -0.7933533402912584
  outer loop
    vertex 525.7460079913259 179.84855569737445 11.596843509460934
    vertex 525.2282410383594 175.84855569737465 11.199546952966212
    vertex 525.2282410383594 179.84855569737445 11.199546952966212
  endloop
endfacet
facet normal 0.6087614290086903 0.0 -0.7933533402912584
  outer loop
    vertex 525.2282410383594 175.84855569737465 11.199546952966212
    vertex 525.7460079913259 179.84855569737445 11.596843509460934
    vertex 525.7460079913259 175.84855569737465 11.596843509460934
  endloop
endfacet
facet normal 0.6087614290086903 0.0 0.7933533402912584
  outer loop
    vertex 525.7460079913259 175.84855569737465 7.2667164905387445
    vertex 525.2282410383594 179.84855569737445 7.664013047033472
    vertex 525.2282410383594 175.84855569737465 7.664013047033472
  endloop
endfacet
facet normal 0.6087614290086903 0.0 0.7933533402912584
  outer loop
    vertex 525.2282410383594 179.84855569737445 7.664013047033472
    vertex 525.7460079913259 175.84855569737465 7.2667164905387445
    vertex 525.7460079913259 179.84855569737445 7.2667164905387445
  endloop
endfacet
facet normal -0.9914448613738099 -0.0 -0.13052619222005613
  outer loop
    vertex 529.4108225570485 179.84855569737445 10.078827612756141
    vertex 529.4960079913258 175.84855569737465 9.43177999999984
    vertex 529.4108225570485 175.84855569737465 10.078827612756141
  endloop
endfacet
facet normal -0.9914448613738099 -0.0 -0.13052619222005613
  outer loop
    vertex 529.4960079913258 175.84855569737465 9.43177999999984
    vertex 529.4108225570485 179.84855569737445 10.078827612756141
    vertex 529.4960079913258 179.84855569737445 9.43177999999984
  endloop
endfacet
facet normal -0.9914448613738098 0.0 0.13052619222005585
  outer loop
    vertex 529.4960079913258 179.84855569737445 9.43177999999984
    vertex 529.4108225570485 175.84855569737465 8.784732387243539
    vertex 529.4960079913258 175.84855569737465 9.43177999999984
  endloop
endfacet
facet normal -0.9914448613738098 0.0 0.13052619222005585
  outer loop
    vertex 529.4108225570485 175.84855569737465 8.784732387243539
    vertex 529.4960079913258 179.84855569737445 9.43177999999984
    vertex 529.4108225570485 179.84855569737445 8.784732387243539
  endloop
endfacet
facet normal 0.9238795325112836 0.0 -0.3826834323650976
  outer loop
    vertex 524.5811934256033 179.84855569737445 10.078827612756147
    vertex 524.8309444818648 175.84855569737465 10.681779999999844
    vertex 524.5811934256033 175.84855569737465 10.078827612756147
  endloop
endfacet
facet normal 0.9238795325112836 0.0 -0.3826834323650976
  outer loop
    vertex 524.8309444818648 175.84855569737465 10.681779999999844
    vertex 524.5811934256033 179.84855569737445 10.078827612756147
    vertex 524.8309444818648 179.84855569737445 10.681779999999844
  endloop
endfacet
facet normal -0.13052619222004516 0.0 0.9914448613738113
  outer loop
    vertex 527.6430556040822 175.84855569737465 7.016965434277171
    vertex 526.9960079913259 179.84855569737445 6.931779999999841
    vertex 526.9960079913259 175.84855569737465 6.931779999999841
  endloop
endfacet
facet normal -0.13052619222004516 0.0 0.9914448613738113
  outer loop
    vertex 526.9960079913259 179.84855569737445 6.931779999999841
    vertex 527.6430556040822 175.84855569737465 7.016965434277171
    vertex 527.6430556040822 179.84855569737445 7.016965434277171
  endloop
endfacet
facet normal 0.38268343236511654 0.0 0.9238795325112757
  outer loop
    vertex 526.3489603785695 175.84855569737465 7.016965434277171
    vertex 525.7460079913259 179.84855569737445 7.2667164905387445
    vertex 525.7460079913259 175.84855569737465 7.2667164905387445
  endloop
endfacet
facet normal 0.38268343236511654 0.0 0.9238795325112757
  outer loop
    vertex 525.7460079913259 179.84855569737445 7.2667164905387445
    vertex 526.3489603785695 175.84855569737465 7.016965434277171
    vertex 526.3489603785695 179.84855569737445 7.016965434277171
  endloop
endfacet
facet normal 0.7933533402912819 0.0 0.6087614290086598
  outer loop
    vertex 525.2282410383594 179.84855569737445 7.664013047033472
    vertex 524.8309444818648 175.84855569737465 8.181779999999842
    vertex 525.2282410383594 175.84855569737465 7.664013047033472
  endloop
endfacet
facet normal 0.7933533402912819 0.0 0.6087614290086598
  outer loop
    vertex 524.8309444818648 175.84855569737465 8.181779999999842
    vertex 525.2282410383594 179.84855569737445 7.664013047033472
    vertex 524.8309444818648 179.84855569737445 8.181779999999842
  endloop
endfacet
facet normal 0.793353340291281 0.0 -0.6087614290086608
  outer loop
    vertex 524.8309444818648 179.84855569737445 10.681779999999844
    vertex 525.2282410383594 175.84855569737465 11.199546952966212
    vertex 524.8309444818648 175.84855569737465 10.681779999999844
  endloop
endfacet
facet normal 0.793353340291281 0.0 -0.6087614290086608
  outer loop
    vertex 525.2282410383594 175.84855569737465 11.199546952966212
    vertex 524.8309444818648 179.84855569737445 10.681779999999844
    vertex 525.2282410383594 179.84855569737445 11.199546952966212
  endloop
endfacet
facet normal -0.923879532511284 0.0 0.3826834323650969
  outer loop
    vertex 529.4108225570485 179.84855569737445 8.784732387243539
    vertex 529.1610715007869 175.84855569737465 8.181779999999842
    vertex 529.4108225570485 175.84855569737465 8.784732387243539
  endloop
endfacet
facet normal -0.923879532511284 0.0 0.3826834323650969
  outer loop
    vertex 529.1610715007869 175.84855569737465 8.181779999999842
    vertex 529.4108225570485 179.84855569737445 8.784732387243539
    vertex 529.1610715007869 179.84855569737445 8.181779999999842
  endloop
endfacet
facet normal 0.923879532511284 0.0 0.3826834323650969
  outer loop
    vertex 524.8309444818648 179.84855569737445 8.181779999999842
    vertex 524.5811934256033 175.84855569737465 8.784732387243539
    vertex 524.8309444818648 175.84855569737465 8.181779999999842
  endloop
endfacet
facet normal 0.923879532511284 0.0 0.3826834323650969
  outer loop
    vertex 524.5811934256033 175.84855569737465 8.784732387243539
    vertex 524.8309444818648 179.84855569737445 8.181779999999842
    vertex 524.5811934256033 179.84855569737445 8.784732387243539
  endloop
endfacet
facet normal 4.379757860978648e-46 1.0 -2.994794440793923e-16
  outer loop
    vertex 500.0658454421448 179.8485556973745 17.657878736650677
    vertex 544.5683723119874 179.84855569737445 -16.818220000000125
    vertex 509.4236436706643 179.84855569737445 -16.818220000000125
  endloop
endfacet
facet normal 4.379757860978648e-46 1.0 -2.994794440793923e-16
  outer loop
    vertex 544.5683723119874 179.84855569737445 -16.818220000000125
    vertex 500.0658454421448 179.8485556973745 17.657878736650677
    vertex 526.3489603785695 179.84855569737445 7.016965434277171
  endloop
endfacet
facet normal 4.379757860978648e-46 1.0 -2.994794440793923e-16
  outer loop
    vertex 544.5683723119874 179.84855569737445 -16.818220000000125
    vertex 526.3489603785695 179.84855569737445 7.016965434277171
    vertex 526.9960079913259 179.84855569737445 6.931779999999841
  endloop
endfacet
facet normal 4.379757860978648e-46 1.0 -2.994794440793923e-16
  outer loop
    vertex 526.3489603785695 179.84855569737445 7.016965434277171
    vertex 500.0658454421448 179.8485556973745 17.657878736650677
    vertex 525.7460079913259 179.84855569737445 7.2667164905387445
  endloop
endfacet
facet normal 4.379757860978648e-46 1.0 -2.994794440793923e-16
  outer loop
    vertex 525.7460079913259 179.84855569737445 7.2667164905387445
    vertex 500.0658454421448 179.8485556973745 17.657878736650677
    vertex 525.2282410383594 179.84855569737445 7.664013047033472
  endloop
endfacet
facet normal 4.379757860978648e-46 1.0 -2.994794440793923e-16
  outer loop
    vertex 525.2282410383594 179.84855569737445 7.664013047033472
    vertex 500.0658454421448 179.8485556973745 17.657878736650677
    vertex 524.8309444818648 179.84855569737445 8.181779999999842
  endloop
endfacet
facet normal 4.379757860978648e-46 1.0 -2.994794440793923e-16
  outer loop
    vertex 524.8309444818648 179.84855569737445 8.181779999999842
    vertex 500.0658454421448 179.8485556973745 17.657878736650677
    vertex 524.5811934256033 179.84855569737445 8.784732387243539
  endloop
endfacet
facet normal 4.379757860978648e-46 1.0 -2.994794440793923e-16
  outer loop
    vertex 524.5811934256033 179.84855569737445 8.784732387243539
    vertex 500.0658454421448 179.8485556973745 17.657878736650677
    vertex 524.4960079913259 179.84855569737445 9.43177999999984
  endloop
endfacet
facet normal 4.379757860978648e-46 1.0 -2.994794440793923e-16
  outer loop
    vertex 524.4960079913259 179.84855569737445 9.43177999999984
    vertex 500.0658454421448 179.8485556973745 17.657878736650677
    vertex 524.5811934256033 179.84855569737445 10.078827612756147
  endloop
endfacet
facet normal 4.379757860978648e-46 1.0 -2.994794440793923e-16
  outer loop
    vertex 524.5811934256033 179.84855569737445 10.078827612756147
    vertex 500.0658454421448 179.8485556973745 17.657878736650677
    vertex 524.8309444818648 179.84855569737445 10.681779999999844
  endloop
endfacet
facet normal 4.379757860978648e-46 1.0 -2.994794440793923e-16
  outer loop
    vertex 524.8309444818648 179.84855569737445 10.681779999999844
    vertex 500.0658454421448 179.8485556973745 17.657878736650677
    vertex 525.2282410383594 179.84855569737445 11.199546952966212
  endloop
endfacet
facet normal 4.379757860978648e-46 1.0 -2.994794440793923e-16
  outer loop
    vertex 525.2282410383594 179.84855569737445 11.199546952966212
    vertex 500.0658454421448 179.8485556973745 17.657878736650677
    vertex 525.7460079913259 179.84855569737445 11.596843509460934
  endloop
endfacet
facet normal 4.379757860978648e-46 1.0 -2.994794440793923e-16
  outer loop
    vertex 525.7460079913259 179.84855569737445 11.596843509460934
    vertex 500.0658454421448 179.8485556973745 17.657878736650677
    vertex 526.3489603785695 179.84855569737445 11.846594565722514
  endloop
endfacet
facet normal 4.379757860978648e-46 1.0 -2.994794440793923e-16
  outer loop
    vertex 526.3489603785695 179.84855569737445 11.846594565722514
    vertex 500.0658454421448 179.8485556973745 17.657878736650677
    vertex 526.9960079913259 179.84855569737445 11.93177999999984
  endloop
endfacet
facet normal 4.379757860978648e-46 1.0 -2.994794440793923e-16
  outer loop
    vertex 544.5683723119874 179.84855569737445 -16.818220000000125
    vertex 527.6430556040822 179.84855569737445 7.016965434277171
    vertex 553.9261705405069 179.8485556973745 17.657878736650677
  endloop
endfacet
facet normal 4.379757860978648e-46 1.0 -2.994794440793923e-16
  outer loop
    vertex 527.6430556040822 179.84855569737445 7.016965434277171
    vertex 544.5683723119874 179.84855569737445 -16.818220000000125
    vertex 526.9960079913259 179.84855569737445 6.931779999999841
  endloop
endfacet
facet normal 4.379757860978648e-46 1.0 -2.994794440793923e-16
  outer loop
    vertex 553.9261705405069 179.8485556973745 17.657878736650677
    vertex 527.6430556040822 179.84855569737445 7.016965434277171
    vertex 528.2460079913259 179.84855569737445 7.2667164905387445
  endloop
endfacet
facet normal 4.379757860978648e-46 1.0 -2.994794440793923e-16
  outer loop
    vertex 553.9261705405069 179.8485556973745 17.657878736650677
    vertex 528.2460079913259 179.84855569737445 7.2667164905387445
    vertex 528.7637749442922 179.84855569737445 7.664013047033472
  endloop
endfacet
facet normal 4.379757860978648e-46 1.0 -2.994794440793923e-16
  outer loop
    vertex 553.9261705405069 179.8485556973745 17.657878736650677
    vertex 528.7637749442922 179.84855569737445 7.664013047033472
    vertex 529.1610715007869 179.84855569737445 8.181779999999842
  endloop
endfacet
facet normal 4.379757860978648e-46 1.0 -2.994794440793923e-16
  outer loop
    vertex 553.9261705405069 179.8485556973745 17.657878736650677
    vertex 529.1610715007869 179.84855569737445 8.181779999999842
    vertex 529.4108225570485 179.84855569737445 8.784732387243539
  endloop
endfacet
facet normal 4.379757860978648e-46 1.0 -2.994794440793923e-16
  outer loop
    vertex 553.9261705405069 179.8485556973745 17.657878736650677
    vertex 529.4108225570485 179.84855569737445 8.784732387243539
    vertex 529.4960079913258 179.84855569737445 9.43177999999984
  endloop
endfacet
facet normal 4.379757860978648e-46 1.0 -2.994794440793923e-16
  outer loop
    vertex 553.9261705405069 179.8485556973745 17.657878736650677
    vertex 529.4960079913258 179.84855569737445 9.43177999999984
    vertex 529.4108225570485 179.84855569737445 10.078827612756141
  endloop
endfacet
facet normal 4.379757860978648e-46 1.0 -2.994794440793923e-16
  outer loop
    vertex 553.9261705405069 179.8485556973745 17.657878736650677
    vertex 529.4108225570485 179.84855569737445 10.078827612756141
    vertex 529.1610715007869 179.84855569737445 10.681779999999836
  endloop
endfacet
facet normal 4.379757860978648e-46 1.0 -2.994794440793923e-16
  outer loop
    vertex 553.9261705405069 179.8485556973745 17.657878736650677
    vertex 529.1610715007869 179.84855569737445 10.681779999999836
    vertex 528.7637749442922 179.84855569737445 11.199546952966207
  endloop
endfacet
facet normal 4.379757860978648e-46 1.0 -2.994794440793923e-16
  outer loop
    vertex 553.9261705405069 179.8485556973745 17.657878736650677
    vertex 528.7637749442922 179.84855569737445 11.199546952966207
    vertex 528.2460079913259 179.84855569737445 11.596843509460934
  endloop
endfacet
facet normal 4.379757860978648e-46 1.0 -2.994794440793923e-16
  outer loop
    vertex 553.9261705405069 179.8485556973745 17.657878736650677
    vertex 528.2460079913259 179.84855569737445 11.596843509460934
    vertex 527.6430556040822 179.84855569737445 11.846594565722514
  endloop
endfacet
facet normal 4.379757860978648e-46 1.0 -2.994794440793923e-16
  outer loop
    vertex 553.9261705405069 179.8485556973745 17.657878736650677
    vertex 527.6430556040822 179.84855569737445 11.846594565722514
    vertex 526.9960079913259 179.84855569737445 11.93177999999984
  endloop
endfacet
facet normal 4.379757860978648e-46 1.0 -2.994794440793923e-16
  outer loop
    vertex 553.9261705405069 179.8485556973745 17.657878736650677
    vertex 526.9960079913259 179.84855569737445 11.93177999999984
    vertex 500.0658454421448 179.8485556973745 17.657878736650677
  endloop
endfacet
facet normal 4.379757860978648e-46 1.0 -2.994794440793923e-16
  outer loop
    vertex 553.9261705405069 179.8485556973745 17.657878736650677
    vertex 500.0658454421448 179.8485556973745 17.657878736650677
    vertex 501.9960079913258 179.84855569737445 18.18177999999983
  endloop
endfacet
facet normal 4.379757860978648e-46 1.0 -2.994794440793923e-16
  outer loop
    vertex 553.9261705405069 179.8485556973745 17.657878736650677
    vertex 501.9960079913258 179.84855569737445 18.18177999999983
    vertex 551.9960079913259 179.84855569737445 18.18177999999983
  endloop
endfacet
facet normal 0.965081274590535 9.020562075079397e-17 -0.2619506316745738
  outer loop
    vertex 544.5683723119874 179.84855569737445 -16.818220000000125
    vertex 553.9261705405069 160.8485556973747 17.657878736650964
    vertex 544.5683723119874 160.84855569737462 -16.818220000000004
  endloop
endfacet
facet normal 0.965081274590535 9.020562075079397e-17 -0.2619506316745738
  outer loop
    vertex 553.9261705405069 160.8485556973747 17.657878736650964
    vertex 544.5683723119874 179.84855569737445 -16.818220000000125
    vertex 553.9261705405069 179.8485556973745 17.657878736650677
  endloop
endfacet
facet normal 6.213083411052829e-17 1.0130785099704553e-15 -1.0
  outer loop
    vertex 509.4236436706643 160.84855569737462 -16.81822000000002
    vertex 511.4960079913259 162.84855569737454 -16.81822000000009
    vertex 521.8578295946337 160.84855569737462 -16.81822000000001
  endloop
endfacet
facet normal 6.213083411052829e-17 1.0130785099704553e-15 -1.0
  outer loop
    vertex 511.4960079913259 162.84855569737454 -16.81822000000009
    vertex 509.4236436706643 160.84855569737462 -16.81822000000002
    vertex 511.4960079913259 175.84855569737454 -16.818220000000085
  endloop
endfacet
facet normal 6.213083411052829e-17 1.0130785099704553e-15 -1.0
  outer loop
    vertex 521.8578295946337 160.84855569737462 -16.81822000000001
    vertex 511.4960079913259 162.84855569737454 -16.81822000000009
    vertex 521.8578295946337 162.8485556973745 -16.818220000000085
  endloop
endfacet
facet normal 6.213083411052829e-17 1.0130785099704553e-15 -1.0
  outer loop
    vertex 509.4236436706643 179.84855569737445 -16.818220000000125
    vertex 511.4960079913259 175.84855569737454 -16.818220000000085
    vertex 509.4236436706643 160.84855569737462 -16.81822000000002
  endloop
endfacet
facet normal 6.213083411052829e-17 1.0130785099704553e-15 -1.0
  outer loop
    vertex 511.4960079913259 175.84855569737454 -16.818220000000085
    vertex 509.4236436706643 179.84855569737445 -16.818220000000125
    vertex 544.5683723119874 179.84855569737445 -16.818220000000125
  endloop
endfacet
facet normal 6.213083411052829e-17 1.0130785099704553e-15 -1.0
  outer loop
    vertex 511.4960079913259 175.84855569737454 -16.818220000000085
    vertex 544.5683723119874 179.84855569737445 -16.818220000000125
    vertex 542.4960079913259 175.84855569737454 -16.818220000000085
  endloop
endfacet
facet normal 6.213083411052829e-17 1.0130785099704553e-15 -1.0
  outer loop
    vertex 542.4960079913259 175.84855569737454 -16.818220000000085
    vertex 544.5683723119874 179.84855569737445 -16.818220000000125
    vertex 542.4960079913259 162.8485556973745 -16.818220000000085
  endloop
endfacet
facet normal 6.213083411052829e-17 1.0130785099704553e-15 -1.0
  outer loop
    vertex 542.4960079913259 162.8485556973745 -16.818220000000085
    vertex 532.1341863880181 160.84855569737462 -16.818220000000004
    vertex 532.1341863880181 162.8485556973745 -16.818220000000085
  endloop
endfacet
facet normal 6.213083411052829e-17 1.0130785099704553e-15 -1.0
  outer loop
    vertex 532.1341863880181 160.84855569737462 -16.818220000000004
    vertex 542.4960079913259 162.8485556973745 -16.818220000000085
    vertex 544.5683723119874 160.84855569737462 -16.818220000000004
  endloop
endfacet
facet normal 6.213083411052829e-17 1.0130785099704553e-15 -1.0
  outer loop
    vertex 544.5683723119874 160.84855569737462 -16.818220000000004
    vertex 542.4960079913259 162.8485556973745 -16.818220000000085
    vertex 544.5683723119874 179.84855569737445 -16.818220000000125
  endloop
endfacet
facet normal 0.0 -1.0 3.222818837197604e-15
  outer loop
    vertex 551.9960079913259 175.84855569737465 18.181779999999847
    vertex 511.4960079913259 175.84855569737454 -16.818220000000085
    vertex 542.4960079913259 175.84855569737454 -16.818220000000085
  endloop
endfacet
facet normal 0.0 -1.0 3.222818837197604e-15
  outer loop
    vertex 511.4960079913259 175.84855569737454 -16.818220000000085
    vertex 551.9960079913259 175.84855569737465 18.181779999999847
    vertex 528.2460079913259 175.84855569737465 7.2667164905387445
  endloop
endfacet
facet normal 0.0 -1.0 3.222818837197604e-15
  outer loop
    vertex 511.4960079913259 175.84855569737454 -16.818220000000085
    vertex 528.2460079913259 175.84855569737465 7.2667164905387445
    vertex 527.6430556040822 175.84855569737465 7.016965434277171
  endloop
endfacet
facet normal 0.0 -1.0 3.222818837197604e-15
  outer loop
    vertex 511.4960079913259 175.84855569737454 -16.818220000000085
    vertex 527.6430556040822 175.84855569737465 7.016965434277171
    vertex 526.9960079913259 175.84855569737465 6.931779999999841
  endloop
endfacet
facet normal 0.0 -1.0 3.222818837197604e-15
  outer loop
    vertex 528.2460079913259 175.84855569737465 7.2667164905387445
    vertex 551.9960079913259 175.84855569737465 18.181779999999847
    vertex 528.7637749442922 175.84855569737465 7.664013047033472
  endloop
endfacet
facet normal 0.0 -1.0 3.222818837197604e-15
  outer loop
    vertex 528.7637749442922 175.84855569737465 7.664013047033472
    vertex 551.9960079913259 175.84855569737465 18.181779999999847
    vertex 529.1610715007869 175.84855569737465 8.181779999999842
  endloop
endfacet
facet normal 0.0 -1.0 3.222818837197604e-15
  outer loop
    vertex 529.1610715007869 175.84855569737465 8.181779999999842
    vertex 551.9960079913259 175.84855569737465 18.181779999999847
    vertex 529.4108225570485 175.84855569737465 8.784732387243539
  endloop
endfacet
facet normal 0.0 -1.0 3.222818837197604e-15
  outer loop
    vertex 529.4108225570485 175.84855569737465 8.784732387243539
    vertex 551.9960079913259 175.84855569737465 18.181779999999847
    vertex 529.4960079913258 175.84855569737465 9.43177999999984
  endloop
endfacet
facet normal 0.0 -1.0 3.222818837197604e-15
  outer loop
    vertex 529.4960079913258 175.84855569737465 9.43177999999984
    vertex 551.9960079913259 175.84855569737465 18.181779999999847
    vertex 529.4108225570485 175.84855569737465 10.078827612756141
  endloop
endfacet
facet normal 0.0 -1.0 3.222818837197604e-15
  outer loop
    vertex 529.4108225570485 175.84855569737465 10.078827612756141
    vertex 551.9960079913259 175.84855569737465 18.181779999999847
    vertex 529.1610715007869 175.84855569737465 10.681779999999836
  endloop
endfacet
facet normal 0.0 -1.0 3.222818837197604e-15
  outer loop
    vertex 529.1610715007869 175.84855569737465 10.681779999999836
    vertex 551.9960079913259 175.84855569737465 18.181779999999847
    vertex 528.7637749442922 175.84855569737465 11.199546952966207
  endloop
endfacet
facet normal 0.0 -1.0 3.222818837197604e-15
  outer loop
    vertex 528.7637749442922 175.84855569737465 11.199546952966207
    vertex 551.9960079913259 175.84855569737465 18.181779999999847
    vertex 528.2460079913259 175.84855569737465 11.596843509460934
  endloop
endfacet
facet normal 0.0 -1.0 3.222818837197604e-15
  outer loop
    vertex 528.2460079913259 175.84855569737465 11.596843509460934
    vertex 551.9960079913259 175.84855569737465 18.181779999999847
    vertex 527.6430556040822 175.84855569737465 11.846594565722514
  endloop
endfacet
facet normal 0.0 -1.0 3.222818837197604e-15
  outer loop
    vertex 527.6430556040822 175.84855569737465 11.846594565722514
    vertex 551.9960079913259 175.84855569737465 18.181779999999847
    vertex 526.9960079913259 175.84855569737465 11.93177999999984
  endloop
endfacet
facet normal 0.0 -1.0 3.222818837197604e-15
  outer loop
    vertex 511.4960079913259 175.84855569737454 -16.818220000000085
    vertex 525.7460079913259 175.84855569737465 7.2667164905387445
    vertex 501.9960079913258 175.84855569737465 18.181779999999847
  endloop
endfacet
facet normal 0.0 -1.0 3.222818837197604e-15
  outer loop
    vertex 525.7460079913259 175.84855569737465 7.2667164905387445
    vertex 511.4960079913259 175.84855569737454 -16.818220000000085
    vertex 526.3489603785695 175.84855569737465 7.016965434277171
  endloop
endfacet
facet normal 0.0 -1.0 3.222818837197604e-15
  outer loop
    vertex 526.3489603785695 175.84855569737465 7.016965434277171
    vertex 511.4960079913259 175.84855569737454 -16.818220000000085
    vertex 526.9960079913259 175.84855569737465 6.931779999999841
  endloop
endfacet
facet normal 0.0 -1.0 3.222818837197604e-15
  outer loop
    vertex 501.9960079913258 175.84855569737465 18.181779999999847
    vertex 525.7460079913259 175.84855569737465 7.2667164905387445
    vertex 525.2282410383594 175.84855569737465 7.664013047033472
  endloop
endfacet
facet normal 0.0 -1.0 3.222818837197604e-15
  outer loop
    vertex 501.9960079913258 175.84855569737465 18.181779999999847
    vertex 525.2282410383594 175.84855569737465 7.664013047033472
    vertex 524.8309444818648 175.84855569737465 8.181779999999842
  endloop
endfacet
facet normal 0.0 -1.0 3.222818837197604e-15
  outer loop
    vertex 501.9960079913258 175.84855569737465 18.181779999999847
    vertex 524.8309444818648 175.84855569737465 8.181779999999842
    vertex 524.5811934256033 175.84855569737465 8.784732387243539
  endloop
endfacet
facet normal 0.0 -1.0 3.222818837197604e-15
  outer loop
    vertex 501.9960079913258 175.84855569737465 18.181779999999847
    vertex 524.5811934256033 175.84855569737465 8.784732387243539
    vertex 524.4960079913259 175.84855569737465 9.43177999999984
  endloop
endfacet
facet normal 0.0 -1.0 3.222818837197604e-15
  outer loop
    vertex 501.9960079913258 175.84855569737465 18.181779999999847
    vertex 524.4960079913259 175.84855569737465 9.43177999999984
    vertex 524.5811934256033 175.84855569737465 10.078827612756147
  endloop
endfacet
facet normal 0.0 -1.0 3.222818837197604e-15
  outer loop
    vertex 501.9960079913258 175.84855569737465 18.181779999999847
    vertex 524.5811934256033 175.84855569737465 10.078827612756147
    vertex 524.8309444818648 175.84855569737465 10.681779999999844
  endloop
endfacet
facet normal 0.0 -1.0 3.222818837197604e-15
  outer loop
    vertex 501.9960079913258 175.84855569737465 18.181779999999847
    vertex 524.8309444818648 175.84855569737465 10.681779999999844
    vertex 525.2282410383594 175.84855569737465 11.199546952966212
  endloop
endfacet
facet normal 0.0 -1.0 3.222818837197604e-15
  outer loop
    vertex 501.9960079913258 175.84855569737465 18.181779999999847
    vertex 525.2282410383594 175.84855569737465 11.199546952966212
    vertex 525.7460079913259 175.84855569737465 11.596843509460934
  endloop
endfacet
facet normal 0.0 -1.0 3.222818837197604e-15
  outer loop
    vertex 501.9960079913258 175.84855569737465 18.181779999999847
    vertex 525.7460079913259 175.84855569737465 11.596843509460934
    vertex 526.3489603785695 175.84855569737465 11.846594565722514
  endloop
endfacet
facet normal 0.0 -1.0 3.222818837197604e-15
  outer loop
    vertex 501.9960079913258 175.84855569737465 18.181779999999847
    vertex 526.3489603785695 175.84855569737465 11.846594565722514
    vertex 526.9960079913259 175.84855569737465 11.93177999999984
  endloop
endfacet
facet normal 0.0 -1.0 3.222818837197604e-15
  outer loop
    vertex 501.9960079913258 175.84855569737465 18.181779999999847
    vertex 526.9960079913259 175.84855569737465 11.93177999999984
    vertex 551.9960079913259 175.84855569737465 18.181779999999847
  endloop
endfacet
facet normal 0.0 4.229949723822068e-15 1.0
  outer loop
    vertex 551.9960079913259 175.84855569737465 18.181779999999847
    vertex 501.9960079913258 179.84855569737445 18.18177999999983
    vertex 501.9960079913258 175.84855569737465 18.181779999999847
  endloop
endfacet
facet normal 0.0 4.229949723822068e-15 1.0
  outer loop
    vertex 501.9960079913258 179.84855569737445 18.18177999999983
    vertex 551.9960079913259 175.84855569737465 18.181779999999847
    vertex 551.9960079913259 179.84855569737445 18.18177999999983
  endloop
endfacet
facet normal 0.0 -1.0 -9.298117831235686e-16
  outer loop
    vertex 553.9261705405069 160.8485556973747 17.657878736650964
    vertex 532.1341863880181 160.84855569737462 -16.818220000000004
    vertex 544.5683723119874 160.84855569737462 -16.818220000000004
  endloop
endfacet
facet normal 0.0 -1.0 -9.298117831235686e-16
  outer loop
    vertex 532.1341863880181 160.84855569737462 -16.818220000000004
    vertex 553.9261705405069 160.8485556973747 17.657878736650964
    vertex 541.4919846165376 160.8485556973748 17.657878736651003
  endloop
endfacet
facet normal 0.0 -1.0 -9.298117831235686e-16
  outer loop
    vertex 541.4919846165376 160.8485556973748 17.657878736651003
    vertex 553.9261705405069 160.8485556973747 17.657878736650964
    vertex 551.9960079913259 160.84855569737474 18.18178000000015
  endloop
endfacet
facet normal -0.965081274590535 9.020562075079397e-17 -0.2619506316745738
  outer loop
    vertex 500.0658454421448 160.84855569737476 17.65787873665097
    vertex 509.4236436706643 179.84855569737445 -16.818220000000125
    vertex 509.4236436706643 160.84855569737462 -16.81822000000002
  endloop
endfacet
facet normal -0.965081274590535 9.020562075079397e-17 -0.2619506316745738
  outer loop
    vertex 509.4236436706643 179.84855569737445 -16.818220000000125
    vertex 500.0658454421448 160.84855569737476 17.65787873665097
    vertex 500.0658454421448 179.8485556973745 17.657878736650677
  endloop
endfacet
facet normal 0.2619506316745779 -6.661338147750939e-16 0.965081274590534
  outer loop
    vertex 553.9261705405069 160.8485556973747 17.657878736650964
    vertex 551.9960079913259 162.84855569737476 18.181780000000096
    vertex 551.9960079913259 160.84855569737474 18.18178000000015
  endloop
endfacet
facet normal 0.2619506316745779 -6.661338147750939e-16 0.965081274590534
  outer loop
    vertex 551.9960079913259 162.84855569737476 18.181780000000096
    vertex 553.9261705405069 160.8485556973747 17.657878736650964
    vertex 551.9960079913259 175.84855569737465 18.181779999999847
  endloop
endfacet
facet normal 0.2619506316745779 -6.661338147750939e-16 0.965081274590534
  outer loop
    vertex 551.9960079913259 175.84855569737465 18.181779999999847
    vertex 553.9261705405069 160.8485556973747 17.657878736650964
    vertex 551.9960079913259 179.84855569737445 18.18177999999983
  endloop
endfacet
facet normal 0.2619506316745779 -6.661338147750939e-16 0.965081274590534
  outer loop
    vertex 551.9960079913259 179.84855569737445 18.18177999999983
    vertex 553.9261705405069 160.8485556973747 17.657878736650964
    vertex 553.9261705405069 179.8485556973745 17.657878736650677
  endloop
endfacet
facet normal 0.965081274590535 -2.0816681711721685e-17 0.26195063167457405
  outer loop
    vertex 521.8578295946337 162.8485556973745 -16.818220000000085
    vertex 512.3578295946337 160.84855569737468 18.181780000000067
    vertex 521.8578295946337 160.84855569737462 -16.81822000000001
  endloop
endfacet
facet normal 0.965081274590535 -2.0816681711721685e-17 0.26195063167457405
  outer loop
    vertex 512.3578295946337 160.84855569737468 18.181780000000067
    vertex 521.8578295946337 162.8485556973745 -16.818220000000085
    vertex 512.3578295946337 162.84855569737476 18.18178000000007
  endloop
endfacet
facet normal -0.2619506316745765 -5.689893001203928e-16 0.9650812745905345
  outer loop
    vertex 501.9960079913258 160.8485556973747 18.18178000000011
    vertex 500.0658454421448 179.8485556973745 17.657878736650677
    vertex 500.0658454421448 160.84855569737476 17.65787873665097
  endloop
endfacet
facet normal -0.2619506316745765 -5.689893001203928e-16 0.9650812745905345
  outer loop
    vertex 500.0658454421448 179.8485556973745 17.657878736650677
    vertex 501.9960079913258 160.8485556973747 18.18178000000011
    vertex 501.9960079913258 179.84855569737445 18.18177999999983
  endloop
endfacet
facet normal -0.2619506316745765 -5.689893001203928e-16 0.9650812745905345
  outer loop
    vertex 501.9960079913258 179.84855569737445 18.18177999999983
    vertex 501.9960079913258 160.8485556973747 18.18178000000011
    vertex 501.9960079913258 162.84855569737476 18.181780000000096
  endloop
endfacet
facet normal -0.2619506316745765 -5.689893001203928e-16 0.9650812745905345
  outer loop
    vertex 501.9960079913258 179.84855569737445 18.18177999999983
    vertex 501.9960079913258 162.84855569737476 18.181780000000096
    vertex 501.9960079913258 175.84855569737465 18.181779999999847
  endloop
endfacet
facet normal -1.107077915836333e-16 1.0 1.0130785099704553e-15
  outer loop
    vertex 541.4919846165376 162.84855569737465 17.657878736650904
    vertex 542.4960079913259 162.8485556973745 -16.818220000000085
    vertex 532.1341863880181 162.8485556973745 -16.818220000000085
  endloop
endfacet
facet normal -1.107077915836333e-16 1.0 1.0130785099704553e-15
  outer loop
    vertex 542.4960079913259 162.8485556973745 -16.818220000000085
    vertex 541.4919846165376 162.84855569737465 17.657878736650904
    vertex 551.9960079913259 162.84855569737476 18.181780000000096
  endloop
endfacet
facet normal -0.965081274590535 -1.0061396160665481e-16 0.261950631674574
  outer loop
    vertex 551.9960079913259 162.84855569737476 18.181780000000096
    vertex 542.4960079913259 175.84855569737454 -16.818220000000085
    vertex 542.4960079913259 162.8485556973745 -16.818220000000085
  endloop
endfacet
facet normal -0.965081274590535 -1.0061396160665481e-16 0.261950631674574
  outer loop
    vertex 542.4960079913259 175.84855569737454 -16.818220000000085
    vertex 551.9960079913259 162.84855569737476 18.181780000000096
    vertex 551.9960079913259 175.84855569737465 18.181779999999847
  endloop
endfacet
facet normal 0.965081274590535 -2.8449465006019636e-16 0.2619506316745738
  outer loop
    vertex 511.4960079913259 175.84855569737454 -16.818220000000085
    vertex 501.9960079913258 162.84855569737476 18.181780000000096
    vertex 511.4960079913259 162.84855569737454 -16.81822000000009
  endloop
endfacet
facet normal 0.965081274590535 -2.8449465006019636e-16 0.2619506316745738
  outer loop
    vertex 501.9960079913258 162.84855569737476 18.181780000000096
    vertex 511.4960079913259 175.84855569737454 -16.818220000000085
    vertex 501.9960079913258 175.84855569737465 18.181779999999847
  endloop
endfacet
facet normal -6.47879729537013e-16 1.0 3.191891195797325e-16
  outer loop
    vertex 501.9960079913258 162.84855569737476 18.181780000000096
    vertex 521.8578295946337 162.8485556973745 -16.818220000000085
    vertex 511.4960079913259 162.84855569737454 -16.81822000000009
  endloop
endfacet
facet normal -6.47879729537013e-16 1.0 3.191891195797325e-16
  outer loop
    vertex 521.8578295946337 162.8485556973745 -16.818220000000085
    vertex 501.9960079913258 162.84855569737476 18.181780000000096
    vertex 512.3578295946337 162.84855569737476 18.18178000000007
  endloop
endfacet
facet normal -0.9650812745905346 -2.636779683484747e-16 0.2619506316745758
  outer loop
    vertex 541.4919846165376 160.8485556973748 17.657878736651003
    vertex 532.1341863880181 162.8485556973745 -16.818220000000085
    vertex 532.1341863880181 160.84855569737462 -16.818220000000004
  endloop
endfacet
facet normal -0.9650812745905346 -2.636779683484747e-16 0.2619506316745758
  outer loop
    vertex 532.1341863880181 162.8485556973745 -16.818220000000085
    vertex 541.4919846165376 160.8485556973748 17.657878736651003
    vertex 541.4919846165376 162.84855569737465 17.657878736650904
  endloop
endfacet
facet normal -0.04981432533761801 -4.440892098500626e-16 0.998758495829276
  outer loop
    vertex 551.9960079913259 160.84855569737474 18.18178000000015
    vertex 541.4919846165376 162.84855569737465 17.657878736650904
    vertex 541.4919846165376 160.8485556973748 17.657878736651003
  endloop
endfacet
facet normal -0.04981432533761801 -4.440892098500626e-16 0.998758495829276
  outer loop
    vertex 541.4919846165376 162.84855569737465 17.657878736650904
    vertex 551.9960079913259 160.84855569737474 18.18178000000015
    vertex 551.9960079913259 162.84855569737476 18.181780000000096
  endloop
endfacet
facet normal 1.6328981083679431e-15 -3.4833247397614286e-15 1.0
  outer loop
    vertex 512.3578295946337 160.84855569737468 18.181780000000067
    vertex 501.9960079913258 162.84855569737476 18.181780000000096
    vertex 501.9960079913258 160.8485556973747 18.18178000000011
  endloop
endfacet
facet normal 1.6328981083679431e-15 -3.4833247397614286e-15 1.0
  outer loop
    vertex 501.9960079913258 162.84855569737476 18.181780000000096
    vertex 512.3578295946337 160.84855569737468 18.181780000000067
    vertex 512.3578295946337 162.84855569737476 18.18178000000007
  endloop
endfacet
facet normal 4.828480839880349e-16 -1.0 -8.743006318923108e-16
  outer loop
    vertex 521.8578295946337 160.84855569737462 -16.81822000000001
    vertex 500.0658454421448 160.84855569737476 17.65787873665097
    vertex 509.4236436706643 160.84855569737462 -16.81822000000002
  endloop
endfacet
facet normal 4.828480839880349e-16 -1.0 -8.743006318923108e-16
  outer loop
    vertex 500.0658454421448 160.84855569737476 17.65787873665097
    vertex 521.8578295946337 160.84855569737462 -16.81822000000001
    vertex 512.3578295946337 160.84855569737468 18.181780000000067
  endloop
endfacet
facet normal 4.828480839880349e-16 -1.0 -8.743006318923108e-16
  outer loop
    vertex 500.0658454421448 160.84855569737476 17.65787873665097
    vertex 512.3578295946337 160.84855569737468 18.181780000000067
    vertex 501.9960079913258 160.8485556973747 18.18178000000011
  endloop
endfacet
endsolid FlushCutterHolster
